<svg width="139" height="69" viewBox="0 0 139 69" fill="none" xmlns="http://www.w3.org/2000/svg">
<path d="M78.4797 69H63.1582V27.7155C63.1582 23.2566 63.3505 18.3326 63.7347 12.9435H63.3505C62.5499 17.1778 61.8296 20.2252 61.1892 22.0858L45.0514 69H32.3717L15.9457 22.567C15.4974 21.3159 14.777 18.1081 13.7844 12.9435H13.3521C13.7684 19.7441 13.9765 25.7106 13.9765 30.8431V69H0V0H22.7178L36.7902 40.8996C37.9108 44.1717 38.7275 47.4596 39.2398 50.7636H39.528C40.3925 46.9463 41.3051 43.6263 42.2655 40.8034L56.3383 0H78.4797V69ZM77.9069 69V0H102.306C126.769 0 139 11.2113 139 33.6339C139 44.3801 135.654 52.9609 128.962 59.3766C122.302 65.7922 113.417 69 102.306 69H77.9069ZM93.4204 12.6548V56.3932H101.105C107.829 56.3932 113.097 54.3724 116.907 50.3307C120.749 46.2887 122.67 40.7874 122.67 33.8264C122.67 27.2504 120.765 22.0858 116.955 18.3326C113.176 14.5474 107.861 12.6548 101.009 12.6548H93.4204Z" fill="white"/>
</svg>
