<?xml version="1.0" encoding="UTF-8" standalone="no"?>
<!DOCTYPE svg PUBLIC "-//W3C//DTD SVG 1.1//EN" "http://www.w3.org/Graphics/SVG/1.1/DTD/svg11.dtd">
<svg width="100%" height="100%" viewBox="0 0 48 48" version="1.1" xmlns="http://www.w3.org/2000/svg" xmlns:xlink="http://www.w3.org/1999/xlink" xml:space="preserve" xmlns:serif="http://www.serif.com/" style="fill-rule:evenodd;clip-rule:evenodd;stroke-linejoin:round;stroke-miterlimit:2;">
    <rect x="0" y="0" width="48" height="48" style="fill:rgb(47,49,54);"/>
    <g id="Layer_1_xA0_Image_1_" transform="matrix(0.0328359,0,0,0.0328359,12.3948,17.7172)">
        <path d="M487.013,266.51C479.731,265.137 479.782,244.016 480.79,239.257C481.704,234.94 482.74,230.786 483.522,226.48C484.433,221.469 491.014,214.573 490.548,209.871C488.09,210.372 482.817,219.299 484.814,220.36C484.794,221.222 483.516,221.984 482.789,221.402C480.89,219.882 486.166,213.548 487.025,212.409C489.382,209.284 502.831,196.324 502.123,192.519C501.318,188.178 511.065,181.108 513.701,178.761C516.74,176.054 520.337,173.571 522.96,170.446C524.85,168.193 519.793,164.741 518.329,163.046C508.776,151.978 500.753,139.08 497.879,124.501C496.403,117.015 494.869,109.406 494.576,101.76C494.489,99.481 496.72,79.266 500.999,83.96C499.077,86.94 496.886,88.2 495.952,93.015C495.317,96.293 493.702,108.106 496.712,110.562C497.814,103.117 497.748,96.012 500.069,88.751C502.828,80.115 507.759,74.088 513.458,67.249C518.558,61.126 525.647,58.428 532.446,54.828C533.586,51.523 539.004,52.299 541.904,51.871C546.49,51.195 550.296,48.939 554.829,47.992C568.335,45.171 587.664,49.761 599.225,56.588C612.334,64.329 625.188,78.01 626.55,94.109C625.409,94.08 624.746,93.309 624.562,91.795C628.849,105.641 634.842,117.658 634.434,132.605C634.024,147.607 622.541,161.655 611.105,170.184C615.415,174.388 621.576,176.54 625.167,181.658C628.688,186.683 633.692,192.073 637.076,197.896C644.584,210.823 648.882,222.853 651.586,237.497C656.163,262.333 641.187,297.125 620.709,311.75C609.331,319.876 597.622,319.929 584.439,322.396C570.807,324.948 559.254,321.234 546.199,317.831C533.118,314.417 521.41,309.742 510.673,301.385C498.492,291.905 493.801,279.835 487.013,266.51C486.671,266.446 487.887,268.226 487.013,266.51ZM564.985,302.257C583.903,304.409 600.04,301.576 614.183,288.289C619.827,282.986 622.315,275.501 625.362,268.558C629.124,259.989 632.821,251.334 633.604,241.902C636.119,211.859 610.532,185.468 581.399,182.536C574.096,181.801 566.991,181.48 559.666,181.311C550.278,181.094 543.594,184.213 536.056,190.106C520.241,202.46 511.466,218.792 508.169,238.496C505.393,255.089 511.89,270.303 522.749,282.569C528.237,288.768 536.077,293.683 543.692,296.801C547.742,298.459 551.942,299.597 556.205,300.552C559.804,301.358 562.606,300.298 565.743,300.758C565.433,301.228 565.18,301.728 564.985,302.257C565.801,302.35 564.514,301.228 564.985,302.257ZM610.122,111.118C611.697,102.715 604.41,93.419 600.679,86.425C595.792,77.236 583.916,70.611 574.205,68.344C556.258,64.152 528.838,75.153 522.94,93.207C523.635,93.153 524.297,93.275 524.925,93.574C524.925,95.17 522.843,96.71 522.618,98.674C522.113,103.083 521.455,107.58 521.356,112.017C521.164,120.604 522.487,129.043 525.31,137.167C530.034,150.76 545.179,163.596 559.295,166.03C565.088,167.029 576.179,169.73 581.03,165.002C588.677,166.024 593.283,158.199 598.162,152.993C604.388,146.348 603.977,140.884 606.981,132.67C609.772,125.041 614.989,119.339 610.122,111.118C610.285,110.248 610.697,112.089 610.122,111.118ZM606.32,141.817C609.385,138.653 612.247,131.712 611.184,127.258C608.538,131.106 605.954,137.051 606.32,141.817C607.688,140.406 606.139,139.456 606.32,141.817ZM507.572,186.622C506.14,187.629 506.14,187.629 505.607,189.046C506.444,188.417 507.179,187.692 507.572,186.622ZM483.938,234.914C484.837,233.477 484.84,233.478 484.724,232.508C483.892,233.547 483.892,233.547 483.938,234.914ZM504.975,189.977C504.601,189.425 504.307,189.604 504.094,190.515C504.449,190.915 504.743,190.736 504.975,189.977C504.869,189.877 504.766,190.22 504.975,189.977ZM623.229,88.056C623.083,88.493 623.677,88.143 623.229,88.056C623.21,88.112 623.276,88.065 623.229,88.056ZM618.967,78.135C618.745,78.438 619.109,78.498 618.967,78.135C618.934,78.181 618.988,78.19 618.967,78.135Z" style="fill:rgb(120,122,127);"/>
        <path d="M161.883,99.485C159.687,99.758 158.598,102.542 156.332,102.426C154.263,99.826 153.082,102.682 150.685,103.904C146.186,106.197 140.456,107.581 135.692,109.727C130.703,111.97 124.629,118.851 120.722,122.708C115.277,128.082 109.952,134.486 105.399,140.644C102.572,144.468 98.977,149.666 97.309,154.148C95.758,158.333 94.551,162.452 92.097,166.212C90.252,169.039 91.58,170.49 89.777,172.795C87.659,175.503 84.707,177.775 82.921,180.678C78.274,188.226 80.728,196.492 80.531,205.014C78.249,200.645 79.591,192.084 79.154,187.187C76.337,188.923 78.054,194.975 76.832,197.505C75.952,199.328 75.688,202.563 74.783,203.928C73.084,206.493 77.856,209.24 74.692,211.379C73.53,214.903 78.256,223.311 79.849,226.275C82.494,231.204 81.425,237.399 85.077,242.809C93.72,255.618 99.135,269.65 112.015,279.25C118.885,284.373 125.574,289.073 132.652,293.823C136.714,296.55 141.108,299.9 146.046,300.774C147.598,301.17 149.107,301.69 150.574,302.333C151.507,300.056 153.137,300.908 155.177,301.752C159.51,303.545 158.366,303.277 162.036,302.445C162.624,302.311 168.194,302.244 168.547,302.471C172.826,305.238 183.506,308.403 188.206,306.829C195.206,308.676 200.572,306.779 206.751,308.876C207.799,309.229 221.254,309.242 221.824,308.03C223.524,304.406 241.617,309.141 244.752,309.907C252.3,311.743 262.096,315.926 267.374,321.358C272.895,327.039 268.732,334.457 259.975,333.609C249.934,332.636 239.583,332.091 229.46,332.8C229.053,332.607 234.614,333.235 234.25,334.535C233.843,335.984 202.532,332.491 198.346,332.491C196.866,334.216 194.432,333.137 192.44,332.683C186.351,331.296 191.979,332.974 188.65,333.885C184.556,335.003 176.358,332.52 172.412,331.225C162.167,327.865 152.202,325.416 141.793,321.942C140.168,321.401 140.929,324.318 139.177,323.641C135.389,322.176 133.965,320.186 130.1,320.413C127.5,320.565 124.146,318.254 121.889,317.239C119.915,316.387 117.971,315.473 116.056,314.497C115.516,315.773 114.691,316.043 113.58,315.304C112.293,314.667 105.973,311.877 104.505,312.252C101.361,313.056 95.027,303.504 92.644,301.547C84.715,295.033 77.602,286.579 71.931,278.203C67.783,272.073 62.473,265.955 59.821,258.976C58.652,255.905 60.632,257.772 58.238,253.308C55.588,248.368 58.468,250.5 56.145,245.11C55.624,243.903 54.268,244.17 53.847,243.015C52.376,238.963 52.634,234.19 52.502,229.953C52.313,223.839 52.027,218.277 51.222,212.242C50.155,212.977 50.766,214.824 48.885,214.45C50.693,200.052 53.703,184.63 58.482,171.41C60.173,166.732 61.169,161.972 63.809,158.185C67.106,153.456 70.255,147.576 72.315,142.185C76.807,130.43 88.08,118.3 96.127,108.665C98.378,105.97 100.657,103.313 102.801,100.529C106.246,96.055 106.407,98.708 109.75,95.22C111.157,93.753 118.221,83.698 120.262,84.409C120.863,85.046 120.959,85.779 120.551,86.608C122.571,84.839 131.891,74.14 134.319,75.137C135.304,75.541 133.535,77.498 133.366,77.764C137.638,76.647 141.088,72.428 145.306,70.779C145.626,71.111 135.377,79.222 134.095,79.468C138.715,78.07 169.774,56.837 171.967,59.919C171.095,58.684 149.716,72.173 147.237,73.638C151.689,74.53 160.593,69.213 165.01,67.742C172.227,65.34 179.631,63.805 186.973,61.865C194.242,59.944 200.531,59.281 208.027,59.405C214.74,59.517 223.243,58.114 229.6,60.745C234.014,62.572 241.946,64.366 243.046,70.275C244.321,77.123 237.862,77.004 233.604,79.236C232.112,80.018 218.362,86.335 218.221,86.178C215.463,83.126 208.306,89.3 206.179,90.394C204.489,87.539 203.736,89.496 201.293,91.125C198.854,92.753 196.748,92.119 199.467,89.862C191.45,89.862 179.642,92.004 173.031,96.462C172.004,97.187 171.071,97.04 170.232,96.019C167.583,97.473 165.5,99.704 162.991,101.349C159.095,103.896 164.569,97.18 164.581,97.153C162.953,97.389 162.054,98.165 161.883,99.485C161.505,99.532 161.691,99.148 161.883,99.485ZM153.168,303.333C151.79,302.323 153.704,303.717 153.168,303.333C153.015,303.22 153.211,303.364 153.168,303.333ZM175.511,306.36C174.418,306.575 175.528,306.327 175.511,306.36C175.283,306.405 175.478,306.424 175.511,306.36ZM95.783,299.272C95.378,299.484 96.796,301.886 98.366,302.017C97.124,301.423 96.263,300.508 95.783,299.272C95.686,299.323 96.009,299.677 95.783,299.272ZM108.481,307.208C108.303,306.91 108.7,307.116 108.481,307.208C108.412,307.092 108.862,307.047 108.481,307.208ZM129.384,318.882C127.414,316.398 120.07,313.303 117.146,312.935C117.673,315.721 126.854,318.329 129.384,318.882C128.303,317.518 128.313,318.648 129.384,318.882ZM177.102,330.37C179.708,331.599 182.647,332.42 185.542,332.466C183.872,331.558 178.704,329.333 177.102,330.37C179.806,331.646 177.437,330.153 177.102,330.37ZM109,312.905C108.85,311.505 107.128,309.76 105.551,310.298C106.548,311.369 107.698,312.238 109,312.905C108.898,311.959 107.656,312.328 109,312.905ZM54.641,239.052C54.621,239.716 54.601,240.379 54.582,241.043C54.767,240.387 54.787,239.723 54.641,239.052C54.185,239.656 54.673,239.424 54.641,239.052ZM111.357,309.337C110.875,308.264 110.787,309.754 111.357,309.337C111.301,309.213 111.302,309.377 111.357,309.337ZM221.439,331.689C220.03,331.689 221.026,332.227 221.439,331.689C221.16,331.689 221.293,331.878 221.439,331.689ZM56.556,238.474C56.144,237.382 56.3,239.103 56.556,238.474C56.508,238.347 56.53,238.537 56.556,238.474ZM55.851,236.12C56.063,236.324 55.918,236.185 55.851,236.12ZM101.77,306.285C100.975,306.669 102.149,306.875 101.77,306.285C101.649,306.343 101.833,306.383 101.77,306.285Z" style="fill:rgb(120,122,127);"/>
        <path d="M338.044,123.45C340.364,121.854 363.989,112.498 364.525,113.443C364.966,114.213 347.808,120.384 346.179,121.155C346.512,122.801 352.25,123.853 353.527,125.851C358.749,126.482 356.488,131.808 357.796,136.006C367.571,136.926 377.892,135.93 387.774,136.418C389.783,136.517 395.297,143.244 394.916,144.834C394.131,148.046 393.464,150.881 390.528,152.542C388.242,151.999 382.151,150.968 380.037,152.186C376.453,154.253 363.864,155.729 359.434,154.651C358.288,154.371 359.467,176.255 359.522,178.779C359.68,185.889 360.957,193.846 361.666,201.504C362.584,211.423 366.683,221.732 366.638,231.585C361.584,223.539 362.949,209.785 360.683,200.61C359.042,209.869 361.706,220.834 362.579,230.098C363.634,241.3 363.475,252.768 365.147,263.899C366.761,274.661 366.936,285.711 367.605,296.571C368.002,303.022 368.426,309.47 368.853,315.919C369.18,320.759 364.408,320.602 360.303,320.622C357.463,320.636 355.183,319.628 353.098,317.868C351.599,316.602 351.316,315.013 349.169,314.757C345.29,314.298 347.489,313.031 346.778,309.801C345.413,303.594 345.185,297.184 344.422,290.9C343.624,284.326 341.464,277.427 341.714,270.803C342.158,259.094 341.152,247.615 340.836,235.891C340.782,233.898 340.265,226.925 339.211,225.602C336.805,222.565 341.311,213.043 338.394,209.508C338.296,210.473 338.711,216.866 337.621,216.783C336.935,216.738 337.374,188.649 337.328,185.762C337.221,179.198 336.695,172.52 336.961,165.96C337.103,162.465 337.922,160.04 333.862,159.918C331.336,159.842 328.468,159.476 325.966,159.973C321.584,160.842 321.156,159.999 316.749,160.261C310.699,160.62 305.431,162.058 299.58,162.749C293.538,163.462 287.65,162.835 281.705,163.223C276.15,163.585 270.01,164.857 264.549,163.329C260.916,162.313 258.332,159.892 255.611,157.35C254.571,156.379 251.195,146.847 252.033,145.951C255.487,142.258 257.799,137.165 261.622,133.112C265.629,128.862 269.313,124.406 273.61,120.411C292.047,103.269 309.049,86.606 332.294,74.41C331.839,74.033 314.618,87.216 314.506,87.17C316.52,87.992 327.756,79.339 329.704,78.005C336.08,73.642 342.252,70.777 349.352,67.825C355.131,65.421 358.769,69.665 359.54,74.463C359.811,76.141 360.72,77.584 360.257,79.356C356.909,81.744 352.693,84.53 350.538,88.129C347.55,93.121 340.093,96.426 335.48,99.796C331.081,103.009 327.265,106.595 323.198,110.15C317.341,115.271 311.502,120.409 305.495,125.354C301.439,128.693 289.06,135.11 287.465,139.992C299.875,139.992 311.967,136.964 324.413,137.55C327.27,137.684 330.153,137.918 333.015,137.904C336.553,137.886 335.317,136.436 335.698,133.587C336.458,127.904 336.839,131.522 338.939,132.4C340.492,130.821 339.67,125.404 339.799,123.394C338.146,122.966 337.562,122.984 338.044,123.45ZM292.348,103.304C292.659,103.622 312.28,90.394 311.381,88.493C304.568,92.783 298.052,97.601 292.348,103.304C292.474,103.433 298.066,97.587 292.348,103.304ZM337.578,133.051C333.451,140.792 342.565,136.091 337.578,133.051C336.844,134.428 339.653,134.316 337.578,133.051ZM338.183,167.523C337.833,169.702 338.138,171.536 338.142,173.366C338.173,171.537 338.719,169.714 338.183,167.523Z" style="fill:rgb(120,122,127);"/>
        <path d="M465.34,66.045C470.015,69.482 467.495,88.054 466.959,92.751C465.768,103.182 464.443,113.599 463.285,124.031C464.79,124.129 465.65,123.428 465.866,121.929C468.904,127.155 460.618,139.764 465.342,144.848C467.162,141.328 473.445,129.424 478.395,129.619C474.565,135.058 469.34,138.952 466.316,145.135C465.276,147.262 464.29,165.189 465.712,165.209C464.41,165.189 464.529,162.923 464.365,162.093C462.248,173.621 461.536,187.106 461.711,198.787C461.918,212.629 459.834,226.984 462.015,240.76C464.062,253.684 464.613,265.762 464.426,278.86C464.332,285.45 464.819,292.04 465.068,298.624C465.12,300.016 466.047,303.544 464.448,304.737C464.72,304.534 462.954,311.492 462.873,312.232C462.523,315.454 457.693,320.156 454.227,320.731C449.808,321.464 440.707,318.694 438.325,314.642C435.734,310.235 435.447,308.19 434.892,301.94C434.681,299.57 432.054,286.952 434.591,285.538C436.564,284.442 434.582,270.081 434.692,267.661C434.983,261.14 433.961,255.46 433.887,249.515C433.737,237.311 434.8,224.907 434.8,212.638C432.535,214.966 435.22,224.53 432.86,225.515C430.664,222.879 433.934,204.062 434.411,200.362C435.192,194.3 434.861,188.147 435.425,182.063C435.827,177.715 437.865,168.488 435.952,164.499C435.81,165.799 434.911,176.953 434.334,176.931C434.847,164.321 436.537,151.733 438.138,139.21C439.493,128.612 443.937,114.301 441.971,103.838C439.501,104.574 439.115,117.487 438.805,119.718C437.701,127.68 437.824,136.607 435.484,144.305C434.935,132.572 438.259,119.905 439.657,108.271C437.874,107.376 431.925,117.373 430.999,118.767C428.091,123.144 421.228,122.716 417.247,120.334C407.47,114.485 419.853,105.949 419.364,98.748C417.876,98.054 416.288,105.509 413.743,105.346C416.967,98.75 421.244,92.572 425.445,86.573C427.984,82.947 432.515,70.496 436.726,69.234C439.464,68.413 438.442,65.128 440.813,64.018C442.558,63.202 444.922,62.197 446.917,61.366C449.51,60.286 452.851,60.194 455.352,61.339C457.861,62.485 462.688,66.149 465.34,66.045C466.946,67.226 464.529,66.077 465.34,66.045ZM464.009,158.692C464.009,157.945 464.402,152.393 463.698,151.848C462.562,153.982 462.4,156.864 464.009,158.692C464.009,156.173 463.495,158.108 464.009,158.692ZM462.998,127.38C462.734,129.111 462.653,130.182 463.106,131.855C463.26,130.218 463.569,128.935 462.998,127.38C462.601,129.988 463.26,128.093 462.998,127.38ZM463.69,145.37C463.029,145.301 462.939,145.668 463.419,146.471C463.954,146.499 464.045,146.132 463.69,145.37C463.547,145.386 463.69,145.726 463.69,145.37ZM423.791,90.875C423.415,90.299 423.113,90.47 422.885,91.388C423.234,91.8 423.536,91.629 423.791,90.875C423.681,90.768 423.573,91.112 423.791,90.875ZM463.695,148.206C463.337,147.361 463.092,148.545 463.695,148.206C463.642,148.079 463.594,148.263 463.695,148.206Z" style="fill:rgb(120,122,127);"/>
        <path d="M369.623,244.528C367.687,242.064 367.286,235.849 366.984,232.755C367.7,233.903 370.396,244.112 369.623,244.528C369.483,244.35 369.739,244.465 369.623,244.528Z" style="fill:rgb(120,122,127);"/>
        <path d="M432.705,199.792C433.344,195.557 433.457,191.269 433.27,186.995C434.546,188.521 433.576,200.243 432.705,199.792C433.318,195.726 432.853,199.869 432.705,199.792Z" style="fill:rgb(120,122,127);"/>
        <path d="M320.695,128.217C322.289,125.808 328.651,125.252 331.161,125.248C331.303,125.437 321.592,128.104 320.695,128.217Z" style="fill:rgb(120,122,127);"/>
        <path d="M432.211,240.818C432.074,243.447 432.774,248.141 431.222,250.5C431.086,248.092 430.951,242.251 432.211,240.818Z" style="fill:rgb(120,122,127);"/>
        <path d="M433.547,272.976C433.547,272.04 433.413,262.544 433.731,262.544C433.73,263.516 434.057,272.887 433.547,272.976C433.547,269.5 433.608,272.965 433.547,272.976Z" style="fill:rgb(120,122,127);"/>
        <path d="M434.146,180.125C434.443,182.075 434.186,184.007 434.038,185.941C432.806,183.959 434.271,182.07 434.146,180.125Z" style="fill:rgb(120,122,127);"/>
        <path d="M337.991,123.396C335.823,124.112 333.435,125.382 331.119,125.199C330.094,124.173 338.354,123.411 337.991,123.396Z" style="fill:rgb(120,122,127);"/>
        <path d="M81.566,213.751C80.679,211.656 80.644,209.481 80.93,207.276C81.142,209.435 81.354,211.593 81.566,213.751Z" style="fill:rgb(120,122,127);"/>
        <path d="M433.832,275.594L433.832,281.934C433.403,279.84 433.715,277.733 433.832,275.594Z" style="fill:rgb(120,122,127);"/>
        <path d="M433.162,170.106C433.04,171.567 432.919,173.029 432.799,174.491C431.196,174.695 432.79,169.699 433.162,170.106C433.04,171.571 433.101,170.039 433.162,170.106Z" style="fill:rgb(120,122,127);"/>
        <path d="M433.621,260.051C433.621,259.635 433.382,255.808 433.846,255.783C433.881,256.285 434.167,260.196 433.621,260.051C433.621,258.632 433.673,260.065 433.621,260.051Z" style="fill:rgb(120,122,127);"/>
        <path d="M656.644,234.803C660.729,235.077 653.835,238.083 656.644,234.803C657.46,234.858 656.498,234.973 656.644,234.803Z" style="fill:rgb(120,122,127);"/>
        <path d="M432.686,234.114C432.5,235.926 432.788,239.087 432.205,240.835C432.166,238.44 431.956,236.323 432.686,234.114Z" style="fill:rgb(120,122,127);"/>
        <path d="M255.908,333.791C255.949,333.576 258.284,334.197 257.674,334.969C256.453,336.517 255.784,334.434 255.908,333.791C255.914,333.762 255.698,334.88 255.908,333.791Z" style="fill:rgb(120,122,127);"/>
        <path d="M432.122,178.424C432.333,179.992 432.528,181.241 431.726,182.645C432.097,181.26 432.229,179.853 432.122,178.424C432.465,180.97 432.122,179.115 432.122,178.424Z" style="fill:rgb(120,122,127);"/>
        <path d="M431.162,257.747L431.162,254.808C431.598,255.776 431.352,256.763 431.162,257.747Z" style="fill:rgb(120,122,127);"/>
        <path d="M431.223,198.871C431.223,198.868 430.72,195.982 431.404,195.696C431.608,196.769 431.548,197.828 431.223,198.871C431.179,198.131 431.359,197.806 431.223,198.871Z" style="fill:rgb(120,122,127);"/>
        <path d="M343.177,314.551C344.878,314.408 344.878,314.408 345.556,315.176C344.724,315.538 344.057,315.414 343.177,314.551Z" style="fill:rgb(120,122,127);"/>
        <path d="M434.226,159.318C433.368,158.799 433.411,157.952 434.353,156.776C434.311,157.623 434.268,158.47 434.226,159.318C433.996,159.14 434.271,158.388 434.226,159.318Z" style="fill:rgb(120,122,127);"/>
        <path d="M370.148,247.893C369.105,246.724 369.019,246.027 369.89,245.802C370.11,246.363 370.954,247.606 370.148,247.893C369.96,247.237 370.261,247.853 370.148,247.893Z" style="fill:rgb(120,122,127);"/>
        <path d="M433.198,164.249C433.329,163.343 433.46,162.437 433.591,161.53C434.29,164.579 433.775,161.833 433.198,164.249Z" style="fill:rgb(120,122,127);"/>
        <path d="M430.823,259.956C431.159,261.224 431.177,261.226 430.799,262.594C430.738,261.822 430.55,261.047 430.823,259.956Z" style="fill:rgb(120,122,127);"/>
        <path d="M434.717,151.982L434.717,154.211C433.842,154.146 433.823,151.936 434.717,151.982C434.717,152.725 434.67,151.979 434.717,151.982Z" style="fill:rgb(120,122,127);"/>
        <path d="M654.833,221.433C654.149,222.355 653.637,222.361 653.297,221.45C653.036,220.092 654.719,221.342 654.833,221.433C654.368,221.747 654.465,221.139 654.833,221.433Z" style="fill:rgb(120,122,127);"/>
        <path d="M431.874,185.08L431.874,187.522C430.859,187.521 430.859,185.08 431.874,185.08C431.874,185.894 431.809,185.08 431.874,185.08Z" style="fill:rgb(120,122,127);"/>
        <path d="M85.1,217.205C84.367,216.57 84.386,216.184 85.156,216.047C85.832,216.675 85.813,217.061 85.1,217.205C84.939,216.908 85.35,217.088 85.1,217.205Z" style="fill:rgb(120,122,127);"/>
        <path d="M430.742,282.472L430.742,280.74C430.879,280.713 431.434,282.481 430.742,282.472C430.742,281.895 430.816,282.473 430.742,282.472Z" style="fill:rgb(120,122,127);"/>
        <path d="M86.009,218.832C85.792,219.464 85.35,219.739 84.684,219.657C84.46,219.604 85.197,218.04 86.009,218.832C85.851,219.063 85.909,218.734 86.009,218.832Z" style="fill:rgb(120,122,127);"/>
        <path d="M434.071,314.058C433.35,313.665 433.232,313.128 433.716,312.446C434.511,313.687 434.63,314.225 434.071,314.058Z" style="fill:rgb(120,122,127);"/>
        <path d="M431.332,292.206C431.723,293.013 431.703,293.402 431.273,293.376C430.884,292.576 430.903,292.186 431.332,292.206C431.332,292.596 431.312,292.206 431.332,292.206Z" style="fill:rgb(120,122,127);"/>
        <path d="M431.36,296.847C431.9,297.281 431.987,297.792 431.621,298.384C431.778,296.87 431.691,296.357 431.36,296.847Z" style="fill:rgb(120,122,127);"/>
        <path d="M432.769,229.57C432.769,232.203 432.568,229.57 432.769,229.57C432.769,229.914 432.732,229.57 432.769,229.57Z" style="fill:rgb(120,122,127);"/>
        <path d="M431.831,189.181C432.201,189.98 432.143,190.35 431.654,190.292C431.284,189.491 431.343,189.121 431.831,189.181C431.831,189.551 431.772,189.18 431.831,189.181Z" style="fill:rgb(120,122,127);"/>
        <path d="M435.177,147.702C435.73,148.744 435.671,149.347 435.001,149.511C434.709,148.903 434.768,148.3 435.177,147.702C435.177,148.639 434.944,148.435 435.177,147.702Z" style="fill:rgb(120,122,127);"/>
        <path d="M435.195,147.27C434.893,146.643 434.859,146.294 435.547,145.981C435.421,146.444 435.334,146.761 435.195,147.27Z" style="fill:rgb(120,122,127);"/>
        <path d="M436.617,315.899C436.617,317.411 436.4,316.16 436.617,315.899C436.617,316.154 436.54,315.992 436.617,315.899Z" style="fill:rgb(120,122,127);"/>
        <path d="M434.103,314.067C434.214,315.449 434.179,315.316 434.103,314.067C434.126,314.358 434.103,314.067 434.103,314.067Z" style="fill:rgb(120,122,127);"/>
        <path d="M432.64,176.228C431.902,177.029 432.088,175.141 432.64,176.228C432.545,176.331 432.573,176.097 432.64,176.228Z" style="fill:rgb(120,122,127);"/>
        <path d="M432.182,303.021C432.396,303.089 432.233,303.908 432.182,303.021C432.225,303.035 432.189,303.155 432.182,303.021Z" style="fill:rgb(120,122,127);"/>
        <path d="M432.612,307.08C432.526,305.285 433.068,307.06 432.612,307.08C432.601,306.834 432.682,307.077 432.612,307.08Z" style="fill:rgb(120,122,127);"/>
        <path d="M432.671,234.122C432.603,232.585 432.647,232.65 432.671,234.122C432.654,233.747 432.671,234.122 432.671,234.122Z" style="fill:rgb(120,122,127);"/>
        <path d="M431.396,296.796C431.083,295.842 431.317,296.328 431.396,296.796C431.349,296.651 431.396,296.796 431.396,296.796Z" style="fill:rgb(120,122,127);"/>
        <path d="M320.657,128.168C320.59,128.392 318.831,128.665 320.657,128.168C320.487,128.734 320.657,128.168 320.657,128.168Z" style="fill:rgb(120,122,127);"/>
        <path d="M433.332,167.714C433.177,168.24 432.826,167.186 433.332,167.714C433.312,167.784 433.266,167.645 433.332,167.714Z" style="fill:rgb(120,122,127);"/>
        <path d="M433.205,164.244C433.684,165.106 433.658,165.513 433.126,165.466C432.866,164.917 432.893,164.509 433.205,164.244Z" style="fill:rgb(120,122,127);"/>
    </g>
</svg>
