<svg width="408" height="202" viewBox="0 0 408 202" fill="none" xmlns="http://www.w3.org/2000/svg">
<path d="M229.844 202H184.984V81.3438C184.984 68.3125 185.547 53.9219 186.672 38.1719H185.547C183.203 50.5469 181.094 59.4531 179.219 64.8906L131.969 202H94.8438L46.75 66.2969C45.4375 62.6406 43.3281 53.2656 40.4219 38.1719H39.1562C40.375 58.0469 40.9844 75.4844 40.9844 90.4844V202H0.0625V0.34375H66.5781L107.781 119.875C111.062 129.438 113.453 139.047 114.953 148.703H115.797C118.328 137.547 121 127.844 123.812 119.594L165.016 0.34375H229.844V202ZM228.167 202V0.34375H299.605C371.23 0.34375 407.042 33.1094 407.042 98.6406C407.042 130.047 397.246 155.125 377.652 173.875C358.152 192.625 332.136 202 299.605 202H228.167ZM273.589 37.3281V165.156H296.089C315.777 165.156 331.199 159.25 342.355 147.438C353.605 135.625 359.23 119.547 359.23 99.2031C359.23 79.9844 353.652 64.8906 342.496 53.9219C331.433 42.8594 315.871 37.3281 295.808 37.3281H273.589Z" fill="white"/>
</svg>
