<?xml version="1.0" encoding="utf-8"?>
<!-- Generator: Adobe Illustrator 26.3.1, SVG Export Plug-In . SVG Version: 6.00 Build 0)  -->
<svg version="1.1" id="Layer_1" xmlns="http://www.w3.org/2000/svg" xmlns:xlink="http://www.w3.org/1999/xlink" x="0px" y="0px"
	 viewBox="0 0 48 48" style="enable-background:new 0 0 48 48;" xml:space="preserve">
<style type="text/css">
	.st0{fill:#2F3136;}
	.st1{fill:#787A7F;}
</style>
<rect class="st0" width="48" height="48"/>
<path class="st1" d="M16,19c0-1.1,0.9-2,2-2h12c1.1,0,2,0.9,2,2v10c0,1.1-0.9,2-2,2H18c-1.1,0-2-0.9-2-2V19z M17.5,27.5v1
	c0,0.3,0.2,0.5,0.5,0.5h1c0.3,0,0.5-0.2,0.5-0.5v-1c0-0.3-0.2-0.5-0.5-0.5h-1C17.7,27,17.5,27.2,17.5,27.5z M29,27
	c-0.3,0-0.5,0.2-0.5,0.5v1c0,0.3,0.2,0.5,0.5,0.5h1c0.3,0,0.5-0.2,0.5-0.5v-1c0-0.3-0.2-0.5-0.5-0.5H29z M17.5,23.5v1
	c0,0.3,0.2,0.5,0.5,0.5h1c0.3,0,0.5-0.2,0.5-0.5v-1c0-0.3-0.2-0.5-0.5-0.5h-1C17.7,23,17.5,23.2,17.5,23.5z M29,23
	c-0.3,0-0.5,0.2-0.5,0.5v1c0,0.3,0.2,0.5,0.5,0.5h1c0.3,0,0.5-0.2,0.5-0.5v-1c0-0.3-0.2-0.5-0.5-0.5H29z M17.5,19.5v1
	c0,0.3,0.2,0.5,0.5,0.5h1c0.3,0,0.5-0.2,0.5-0.5v-1c0-0.3-0.2-0.5-0.5-0.5h-1C17.7,19,17.5,19.2,17.5,19.5z M29,19
	c-0.3,0-0.5,0.2-0.5,0.5v1c0,0.3,0.2,0.5,0.5,0.5h1c0.3,0,0.5-0.2,0.5-0.5v-1c0-0.3-0.2-0.5-0.5-0.5H29z M21,20v2c0,0.6,0.4,1,1,1h4
	c0.6,0,1-0.4,1-1v-2c0-0.6-0.4-1-1-1h-4C21.4,19,21,19.4,21,20z M22,25c-0.6,0-1,0.4-1,1v2c0,0.6,0.4,1,1,1h4c0.6,0,1-0.4,1-1v-2
	c0-0.6-0.4-1-1-1H22z"/>
</svg>
