<?xml version="1.0" encoding="utf-8"?>
<!-- Generator: Adobe Illustrator 26.3.1, SVG Export Plug-In . SVG Version: 6.00 Build 0)  -->
<svg version="1.1" id="Layer_1" xmlns="http://www.w3.org/2000/svg" xmlns:xlink="http://www.w3.org/1999/xlink" x="0px" y="0px"
	 viewBox="0 0 48 48" style="enable-background:new 0 0 48 48;" xml:space="preserve">
<style type="text/css">
	.st0{fill:#2F3136;}
	.st1{fill:#787A7F;}
</style>
<rect x="0" class="st0" width="48" height="48"/>
<path class="st1" d="M25.04,27.47c0.8-0.12,1.53-0.61,1.98-1.34l4.76-7.82c0.37-0.61,0.28-1.42-0.22-1.91
	c-0.5-0.5-1.26-0.54-1.81-0.1l-6.96,5.55c-0.71,0.56-1.12,1.44-1.13,2.38L25.04,27.47z M24.46,28.27L21.05,25
	c-1.76,0.07-3.17,1.61-3.17,3.5c0,0.12,0.01,0.24,0.02,0.36c0.05,0.55-0.3,1.14-0.82,1.14h-0.14C16.42,30,16,30.45,16,31
	c0,0.55,0.42,1,0.94,1h4.24c1.82,0,3.29-1.57,3.29-3.5C24.47,28.42,24.47,28.34,24.46,28.27L24.46,28.27z"/>
</svg>
