<?xml version="1.0" encoding="utf-8"?>
<!-- Generator: Adobe Illustrator 26.3.1, SVG Export Plug-In . SVG Version: 6.00 Build 0)  -->
<svg version="1.1" id="Layer_1" xmlns="http://www.w3.org/2000/svg" xmlns:xlink="http://www.w3.org/1999/xlink" x="0px" y="0px"
	 viewBox="0 0 48 48" style="enable-background:new 0 0 48 48;" xml:space="preserve">
<style type="text/css">
	.st0{fill:#2F3136;}
	.st1{fill:#787B80;}
</style>
<rect x="0" class="st0" width="48" height="48"/>
<path class="st1" d="M24.87,16.56C24.71,16.22,24.37,16,24,16s-0.71,0.22-0.87,0.56l-1.95,4.13l-4.35,0.66
	c-0.36,0.06-0.67,0.32-0.78,0.68c-0.11,0.36-0.02,0.76,0.24,1.02l3.16,3.22l-0.75,4.55c-0.06,0.37,0.09,0.76,0.39,0.98
	c0.3,0.22,0.7,0.25,1.02,0.07L24,29.74l3.89,2.14c0.33,0.18,0.72,0.15,1.02-0.07c0.3-0.22,0.45-0.6,0.39-0.98l-0.75-4.55l3.16-3.22
	c0.26-0.27,0.35-0.66,0.24-1.02c-0.12-0.36-0.42-0.62-0.78-0.68l-4.35-0.66L24.87,16.56z"/>
</svg>
