<?xml version="1.0" encoding="utf-8"?>
<!-- Generator: Adobe Illustrator 26.3.1, SVG Export Plug-In . SVG Version: 6.00 Build 0)  -->
<svg version="1.1" id="Layer_1" xmlns="http://www.w3.org/2000/svg" xmlns:xlink="http://www.w3.org/1999/xlink" x="0px" y="0px"
	 viewBox="0 0 48 48" style="enable-background:new 0 0 48 48;" xml:space="preserve">
<style type="text/css">
	.st0{fill:#2F3136;}
	.st1{fill:#787A7F;}
</style>
<rect x="0" class="st0" width="48" height="48"/>
<path class="st1" d="M30.67,18.44c0-0.37-0.3-0.67-0.67-0.67s-0.67,0.3-0.67,0.67v0.22H16.89c-0.49,0-0.89,0.4-0.89,0.89v3.11
	c0,0.49,0.4,0.89,0.89,0.89h0.28c0.58,0,1,0.54,0.86,1.11l-1.11,4.46c-0.07,0.27-0.01,0.55,0.16,0.76c0.17,0.22,0.42,0.34,0.7,0.34
	h2.67c0.41,0,0.76-0.28,0.86-0.67l0.72-2.88h2.9c0.66,0,1.24-0.41,1.46-1.03l0.74-2.08H28c0.24,0,0.46-0.09,0.63-0.26l0.63-0.63
	h1.85c0.49,0,0.89-0.4,0.89-0.89v-2.22c0-0.49-0.4-0.89-0.89-0.89h-0.44V18.44z M24.93,25.33h-2.57l0.44-1.78h2.92l-0.58,1.63
	C25.11,25.28,25.02,25.33,24.93,25.33L24.93,25.33z M18.22,20.44h10.67c0.24,0,0.44,0.2,0.44,0.44c0,0.24-0.2,0.44-0.44,0.44H18.22
	c-0.24,0-0.44-0.2-0.44-0.44C17.78,20.64,17.98,20.44,18.22,20.44z"/>
</svg>
