<?xml version="1.0" encoding="utf-8"?>
<!-- Generator: Adobe Illustrator 26.3.1, SVG Export Plug-In . SVG Version: 6.00 Build 0)  -->
<svg version="1.1" id="Layer_1" xmlns="http://www.w3.org/2000/svg" xmlns:xlink="http://www.w3.org/1999/xlink" x="0px" y="0px"
	 viewBox="0 0 48 48" style="enable-background:new 0 0 48 48;" xml:space="preserve">
<style type="text/css">
	.st0{fill:#2F3136;}
	.st1{fill:#787A7F;}
</style>
<rect x="0" class="st0" width="48" height="48"/>
<path class="st1" d="M31.6,16.2c0.25,0.19,0.4,0.49,0.4,0.8v2.25v8.25c0,1.38-1.34,2.5-3,2.5s-3-1.12-3-2.5c0-1.38,1.34-2.5,3-2.5
	c0.35,0,0.69,0.05,1,0.14v-4.55l-8,2.4v6.51c0,1.38-1.34,2.5-3,2.5s-3-1.12-3-2.5c0-1.38,1.34-2.5,3-2.5c0.35,0,0.69,0.05,1,0.14
	v-4.89V20c0-0.44,0.29-0.83,0.71-0.96l10-3C31.02,15.95,31.34,16.01,31.6,16.2L31.6,16.2z"/>
</svg>
